<svg width="32" height="32" viewBox="0 0 32 32" fill="none" xmlns="http://www.w3.org/2000/svg">
<g clip-path="url(#clip0_2_35)">
<path d="M10.6668 32C13.6108 32 16.0002 29.6106 16.0002 26.6666V21.3333H10.6668C7.72273 21.3333 5.33334 23.7226 5.33334 26.6666C5.33334 29.6106 7.72273 32 10.6668 32Z" fill="#0ACF83"/>
<path d="M5.33334 16C5.33334 13.056 7.72273 10.6666 10.6668 10.6666H16.0002V21.3332H10.6668C7.72273 21.3333 5.33334 18.944 5.33334 16Z" fill="#A259FF"/>
<path d="M5.33334 5.33338C5.33334 2.38938 7.72273 0 10.6668 0H16.0002V10.6666H10.6668C7.72273 10.6666 5.33334 8.27738 5.33334 5.33338Z" fill="#F24E1E"/>
<path d="M15.9998 0H21.3333C24.2773 0 26.6667 2.38938 26.6667 5.33338C26.6667 8.27738 24.2773 10.6666 21.3333 10.6666H15.9998V0Z" fill="#FF7262"/>
<path d="M26.6667 16C26.6667 18.944 24.2773 21.3333 21.3333 21.3333C18.3892 21.3333 15.9998 18.944 15.9998 16C15.9998 13.056 18.3892 10.6666 21.3333 10.6666C24.2773 10.6666 26.6667 13.056 26.6667 16Z" fill="#1ABCFE"/>
</g>
<defs>
<clipPath id="clip0_2_35">
<rect width="32" height="32" fill="white"/>
</clipPath>
</defs>
</svg>
