<svg width="32" height="32" viewBox="0 0 32 32" fill="none" xmlns="http://www.w3.org/2000/svg">
<path d="M16 0C7.16364 0 0 7.16291 0 16C0 24.8371 7.16364 32 16 32C24.8364 32 32 24.8371 32 16C32 7.16291 24.8364 0 16 0ZM23.806 23.065C23.5491 23.52 23.0764 23.776 22.5891 23.776C22.3612 23.776 22.1261 23.719 21.9103 23.599C19.9127 22.479 17.7358 21.793 15.4352 21.56C13.1297 21.329 10.8533 21.5629 8.66667 22.2611C7.93697 22.4941 7.15152 22.0909 6.9188 21.36C6.68365 20.6279 7.08849 19.8451 7.82061 19.6109C10.3709 18.7961 13.0303 18.519 15.7164 18.792C18.3976 19.065 20.9382 19.865 23.2703 21.1721C23.9418 21.5459 24.1818 22.3939 23.806 23.065ZM25.7212 18.2051C25.4739 18.681 24.9891 18.9539 24.4873 18.9539C24.2691 18.9539 24.0509 18.904 23.8448 18.7961C21.3891 17.5171 18.737 16.7251 15.9564 16.4429C13.1539 16.1561 10.3782 16.4061 7.70182 17.1779C6.96243 17.3879 6.19153 16.9651 5.98062 16.2259C5.76728 15.488 6.19393 14.7171 6.9309 14.504C9.95151 13.633 13.0836 13.3539 16.2376 13.6739C19.3697 13.993 22.3612 14.8851 25.1321 16.329C25.8109 16.6841 26.0776 17.5239 25.7212 18.2051ZM26.4145 14.1619C26.2061 14.1619 25.9952 14.1149 25.7939 14.016C22.88 12.5629 19.7454 11.6579 16.4751 11.3261C13.2 10.991 9.94182 11.2499 6.78788 12.0921C6.04606 12.289 5.28484 11.849 5.08606 11.1059C4.88727 10.3639 5.3285 9.60097 6.07274 9.40291C9.55153 8.47394 13.1491 8.19103 16.7588 8.55806C20.3636 8.92291 23.8206 9.92194 27.0352 11.5251C27.7236 11.8679 28.0024 12.704 27.6606 13.391C27.4182 13.88 26.9261 14.1619 26.4145 14.1619Z" fill="#1ED760"/>
</svg>
