<svg width="32" height="32" viewBox="0 0 32 32" fill="none" xmlns="http://www.w3.org/2000/svg">
<path fill-rule="evenodd" clip-rule="evenodd" d="M10.8801 0H21.1199C24.2996 0 26.88 2.58033 26.88 5.76004C26.88 7.9883 25.6128 9.92215 23.7602 10.88C25.6128 11.8378 26.88 13.7717 26.88 16C26.88 19.1797 24.2996 21.76 21.1199 21.76C19.3112 21.76 17.6964 20.9251 16.6402 19.6198V26.24C16.6402 29.4197 14.0598 32 10.8801 32C7.70036 32 5.12 29.4197 5.12 26.24C5.12 24.0117 6.38718 22.0778 8.2398 21.1199C6.38718 20.1621 5.12 18.2282 5.12 16C5.12 13.7717 6.38717 11.8378 8.23977 10.88C6.38717 9.92215 5.12 7.9883 5.12 5.76004C5.12 2.58033 7.70036 0 10.8801 0ZM6.39999 5.76004C6.39999 3.28727 8.40727 1.28 10.8801 1.28H15.3598V10.2399H10.8801L10.8662 10.2399C8.39974 10.2324 6.39999 8.22816 6.39999 5.76004ZM15.3602 15.939C15.3599 15.9593 15.3598 15.9796 15.3598 16C15.3598 16.0203 15.3599 16.0406 15.3602 16.0609V20.4799H10.88C8.40727 20.48 6.39999 18.4727 6.39999 16C6.39999 13.5318 8.39982 11.5274 10.8663 11.5199L10.8801 11.52H15.3598L15.3602 15.939ZM16.6402 16.0536V15.9463C16.6689 13.5043 18.6551 11.5298 21.1016 11.52H21.1199C21.1245 11.52 21.1291 11.52 21.1337 11.5199C23.6002 11.5274 25.6 13.5318 25.6 16C25.6 18.4727 23.5927 20.48 21.1199 20.48C18.665 20.48 16.6689 18.5017 16.6402 16.0536ZM17.5003 11.52C17.1843 11.7756 16.8959 12.0641 16.6402 12.3801V11.52H17.5003ZM21.1338 10.2399C21.1292 10.2399 21.1245 10.2399 21.1199 10.2399C21.1129 10.2399 21.1059 10.2399 21.0989 10.24H16.6402V1.28H21.1199C23.5927 1.28 25.6 3.28727 25.6 5.76004C25.6 8.22816 23.6002 10.2324 21.1338 10.2399ZM10.8801 21.7599C8.40727 21.7599 6.39999 23.7672 6.39999 26.24C6.39999 28.7127 8.40727 30.72 10.8801 30.72C13.3529 30.72 15.3602 28.7127 15.3602 26.24V21.7599H10.8801Z" fill="white"/>
</svg>
